<mxfile host="65bd71144e">
    <diagram id="GcdNdDXNCzvXQ4ci-BcB" name="Page-1">
        <mxGraphModel dx="3470" dy="3289" grid="1" gridSize="10" guides="1" tooltips="1" connect="1" arrows="1" fold="1" page="1" pageScale="1" pageWidth="850" pageHeight="1100" math="0" shadow="0">
            <root>
                <mxCell id="0"/>
                <mxCell id="1" parent="0"/>
                <mxCell id="2" value="" style="childLayout=tableLayout;recursiveResize=0;shadow=0;strokeColor=#E6E6E6;align=center;" parent="1" vertex="1">
                    <mxGeometry x="-841" y="-1060" width="841" height="425" as="geometry"/>
                </mxCell>
                <mxCell id="3" value="" style="shape=tableRow;horizontal=0;startSize=0;swimlaneHead=0;swimlaneBody=0;top=0;left=0;bottom=0;right=0;dropTarget=0;collapsible=0;recursiveResize=0;expand=0;fontStyle=0;fillColor=none;strokeColor=inherit;align=center;" parent="2" vertex="1">
                    <mxGeometry width="841" height="44" as="geometry"/>
                </mxCell>
                <mxCell id="4" value="&lt;span style=&quot;white-space: pre;&quot;&gt;&#9;&lt;/span&gt;STEP" style="connectable=0;recursiveResize=0;strokeColor=inherit;fillColor=none;align=left;whiteSpace=wrap;html=1;fontStyle=1;labelPosition=center;verticalLabelPosition=middle;verticalAlign=middle;" parent="3" vertex="1">
                    <mxGeometry width="480" height="44" as="geometry">
                        <mxRectangle width="480" height="44" as="alternateBounds"/>
                    </mxGeometry>
                </mxCell>
                <mxCell id="5" value="&lt;span style=&quot;white-space: pre;&quot;&gt;&#9;&lt;/span&gt;COST CALCULATION" style="connectable=0;recursiveResize=0;strokeColor=inherit;fillColor=none;align=center;whiteSpace=wrap;html=1;fontStyle=1" parent="3" vertex="1">
                    <mxGeometry x="480" width="200" height="44" as="geometry">
                        <mxRectangle width="200" height="44" as="alternateBounds"/>
                    </mxGeometry>
                </mxCell>
                <mxCell id="6" value="&lt;span style=&quot;white-space: pre;&quot;&gt;&#9;&lt;/span&gt;STEP COST" style="connectable=0;recursiveResize=0;strokeColor=inherit;fillColor=none;align=center;whiteSpace=wrap;html=1;fontStyle=1" parent="3" vertex="1">
                    <mxGeometry x="680" width="161" height="44" as="geometry">
                        <mxRectangle width="161" height="44" as="alternateBounds"/>
                    </mxGeometry>
                </mxCell>
                <mxCell id="7" style="shape=tableRow;horizontal=0;startSize=0;swimlaneHead=0;swimlaneBody=0;top=0;left=0;bottom=0;right=0;dropTarget=0;collapsible=0;recursiveResize=0;expand=0;fontStyle=0;fillColor=none;strokeColor=inherit;align=center;" parent="2" vertex="1">
                    <mxGeometry y="44" width="841" height="36" as="geometry"/>
                </mxCell>
                <mxCell id="8" value="&lt;span style=&quot;white-space: pre;&quot;&gt;&#9;&lt;/span&gt;1 USER opens the test results window" style="connectable=0;recursiveResize=0;strokeColor=inherit;fillColor=none;align=left;whiteSpace=wrap;html=1;labelPosition=center;verticalLabelPosition=middle;verticalAlign=middle;" parent="7" vertex="1">
                    <mxGeometry width="480" height="36" as="geometry">
                        <mxRectangle width="480" height="36" as="alternateBounds"/>
                    </mxGeometry>
                </mxCell>
                <mxCell id="9" value="1 x 1 x 2.5" style="connectable=0;recursiveResize=0;strokeColor=inherit;fillColor=none;align=center;whiteSpace=wrap;html=1;" parent="7" vertex="1">
                    <mxGeometry x="480" width="200" height="36" as="geometry">
                        <mxRectangle width="200" height="36" as="alternateBounds"/>
                    </mxGeometry>
                </mxCell>
                <mxCell id="10" value="2.5" style="connectable=0;recursiveResize=0;strokeColor=inherit;fillColor=none;align=center;whiteSpace=wrap;html=1;" parent="7" vertex="1">
                    <mxGeometry x="680" width="161" height="36" as="geometry">
                        <mxRectangle width="161" height="36" as="alternateBounds"/>
                    </mxGeometry>
                </mxCell>
                <mxCell id="11" style="shape=tableRow;horizontal=0;startSize=0;swimlaneHead=0;swimlaneBody=0;top=0;left=0;bottom=0;right=0;dropTarget=0;collapsible=0;recursiveResize=0;expand=0;fontStyle=0;fillColor=none;strokeColor=inherit;align=center;" parent="2" vertex="1">
                    <mxGeometry y="80" width="841" height="36" as="geometry"/>
                </mxCell>
                <mxCell id="12" value="&lt;span style=&quot;white-space: pre;&quot;&gt;&#9;&lt;/span&gt;2 SYSTEM shows the test results table" style="connectable=0;recursiveResize=0;strokeColor=inherit;fillColor=none;align=left;whiteSpace=wrap;html=1;labelPosition=center;verticalLabelPosition=middle;verticalAlign=middle;" parent="11" vertex="1">
                    <mxGeometry width="480" height="36" as="geometry">
                        <mxRectangle width="480" height="36" as="alternateBounds"/>
                    </mxGeometry>
                </mxCell>
                <mxCell id="13" value="" style="connectable=0;recursiveResize=0;strokeColor=inherit;fillColor=none;align=center;whiteSpace=wrap;html=1;" parent="11" vertex="1">
                    <mxGeometry x="480" width="200" height="36" as="geometry">
                        <mxRectangle width="200" height="36" as="alternateBounds"/>
                    </mxGeometry>
                </mxCell>
                <mxCell id="14" style="connectable=0;recursiveResize=0;strokeColor=inherit;fillColor=none;align=center;whiteSpace=wrap;html=1;" parent="11" vertex="1">
                    <mxGeometry x="680" width="161" height="36" as="geometry">
                        <mxRectangle width="161" height="36" as="alternateBounds"/>
                    </mxGeometry>
                </mxCell>
                <mxCell id="15" style="shape=tableRow;horizontal=0;startSize=0;swimlaneHead=0;swimlaneBody=0;top=0;left=0;bottom=0;right=0;dropTarget=0;collapsible=0;recursiveResize=0;expand=0;fontStyle=0;fillColor=none;strokeColor=inherit;align=center;" parent="2" vertex="1">
                    <mxGeometry y="116" width="841" height="44" as="geometry"/>
                </mxCell>
                <mxCell id="16" value="&lt;span style=&quot;border-color: var(--border-color);&quot;&gt;&#9;&lt;/span&gt;&lt;span style=&quot;white-space: pre;&quot;&gt;&#9;&lt;/span&gt;3 USER confronts the difference between validation error and test error with the &lt;span style=&quot;white-space: pre;&quot;&gt;&#9;&lt;/span&gt;threshold" style="connectable=0;recursiveResize=0;strokeColor=inherit;fillColor=none;align=left;whiteSpace=wrap;html=1;labelPosition=center;verticalLabelPosition=middle;verticalAlign=middle;" parent="15" vertex="1">
                    <mxGeometry width="480" height="44" as="geometry">
                        <mxRectangle width="480" height="44" as="alternateBounds"/>
                    </mxGeometry>
                </mxCell>
                <mxCell id="17" value="1 x&amp;nbsp; 3 x 2.5" style="connectable=0;recursiveResize=0;strokeColor=inherit;fillColor=none;align=center;whiteSpace=wrap;html=1;" parent="15" vertex="1">
                    <mxGeometry x="480" width="200" height="44" as="geometry">
                        <mxRectangle width="200" height="44" as="alternateBounds"/>
                    </mxGeometry>
                </mxCell>
                <mxCell id="18" value="7.5" style="connectable=0;recursiveResize=0;strokeColor=inherit;fillColor=none;align=center;whiteSpace=wrap;html=1;" parent="15" vertex="1">
                    <mxGeometry x="680" width="161" height="44" as="geometry">
                        <mxRectangle width="161" height="44" as="alternateBounds"/>
                    </mxGeometry>
                </mxCell>
                <mxCell id="19" style="shape=tableRow;horizontal=0;startSize=0;swimlaneHead=0;swimlaneBody=0;top=0;left=0;bottom=0;right=0;dropTarget=0;collapsible=0;recursiveResize=0;expand=0;fontStyle=0;fillColor=none;strokeColor=inherit;align=center;" parent="2" vertex="1">
                    <mxGeometry y="160" width="841" height="44" as="geometry"/>
                </mxCell>
                <mxCell id="20" value="&lt;span style=&quot;white-space: pre;&quot;&gt;&#9;&lt;/span&gt;3.1&amp;nbsp;IF value is lower than the threshold" style="connectable=0;recursiveResize=0;strokeColor=inherit;fillColor=none;align=left;whiteSpace=wrap;html=1;labelPosition=center;verticalLabelPosition=middle;verticalAlign=middle;" parent="19" vertex="1">
                    <mxGeometry width="480" height="44" as="geometry">
                        <mxRectangle width="480" height="44" as="alternateBounds"/>
                    </mxGeometry>
                </mxCell>
                <mxCell id="21" value=".99" style="connectable=0;recursiveResize=0;strokeColor=inherit;fillColor=none;align=center;whiteSpace=wrap;html=1;" parent="19" vertex="1">
                    <mxGeometry x="480" width="200" height="44" as="geometry">
                        <mxRectangle width="200" height="44" as="alternateBounds"/>
                    </mxGeometry>
                </mxCell>
                <mxCell id="22" value="" style="connectable=0;recursiveResize=0;strokeColor=inherit;fillColor=none;align=center;whiteSpace=wrap;html=1;" parent="19" vertex="1">
                    <mxGeometry x="680" width="161" height="44" as="geometry">
                        <mxRectangle width="161" height="44" as="alternateBounds"/>
                    </mxGeometry>
                </mxCell>
                <mxCell id="23" style="shape=tableRow;horizontal=0;startSize=0;swimlaneHead=0;swimlaneBody=0;top=0;left=0;bottom=0;right=0;dropTarget=0;collapsible=0;recursiveResize=0;expand=0;fontStyle=0;fillColor=none;strokeColor=inherit;align=center;" parent="2" vertex="1">
                    <mxGeometry y="204" width="841" height="44" as="geometry"/>
                </mxCell>
                <mxCell id="24" value="&lt;span style=&quot;&quot;&gt;&#9;&lt;/span&gt;&lt;span style=&quot;white-space: pre;&quot;&gt;&#9;&lt;/span&gt;3.1.1&amp;nbsp;USER presses &quot;SAVE RESULTS&quot;" style="connectable=0;recursiveResize=0;strokeColor=inherit;fillColor=none;align=left;whiteSpace=wrap;html=1;labelPosition=center;verticalLabelPosition=middle;verticalAlign=middle;" parent="23" vertex="1">
                    <mxGeometry width="480" height="44" as="geometry">
                        <mxRectangle width="480" height="44" as="alternateBounds"/>
                    </mxGeometry>
                </mxCell>
                <mxCell id="25" value=".99 x 1 x 2.5" style="connectable=0;recursiveResize=0;strokeColor=inherit;fillColor=none;align=center;whiteSpace=wrap;html=1;" parent="23" vertex="1">
                    <mxGeometry x="480" width="200" height="44" as="geometry">
                        <mxRectangle width="200" height="44" as="alternateBounds"/>
                    </mxGeometry>
                </mxCell>
                <mxCell id="26" value="2.475" style="connectable=0;recursiveResize=0;strokeColor=inherit;fillColor=none;align=center;whiteSpace=wrap;html=1;" parent="23" vertex="1">
                    <mxGeometry x="680" width="161" height="44" as="geometry">
                        <mxRectangle width="161" height="44" as="alternateBounds"/>
                    </mxGeometry>
                </mxCell>
                <mxCell id="35" style="shape=tableRow;horizontal=0;startSize=0;swimlaneHead=0;swimlaneBody=0;top=0;left=0;bottom=0;right=0;dropTarget=0;collapsible=0;recursiveResize=0;expand=0;fontStyle=0;fillColor=none;strokeColor=inherit;align=center;" parent="2" vertex="1">
                    <mxGeometry y="248" width="841" height="45" as="geometry"/>
                </mxCell>
                <mxCell id="36" value="&lt;span style=&quot;white-space: pre;&quot;&gt;&#9;&lt;/span&gt;3.2&amp;nbsp;ELSE if value is greater or equal than the threshold" style="connectable=0;recursiveResize=0;strokeColor=inherit;fillColor=none;align=left;whiteSpace=wrap;html=1;labelPosition=center;verticalLabelPosition=middle;verticalAlign=middle;" parent="35" vertex="1">
                    <mxGeometry width="480" height="45" as="geometry">
                        <mxRectangle width="480" height="45" as="alternateBounds"/>
                    </mxGeometry>
                </mxCell>
                <mxCell id="37" value=".01" style="connectable=0;recursiveResize=0;strokeColor=inherit;fillColor=none;align=center;whiteSpace=wrap;html=1;" parent="35" vertex="1">
                    <mxGeometry x="480" width="200" height="45" as="geometry">
                        <mxRectangle width="200" height="45" as="alternateBounds"/>
                    </mxGeometry>
                </mxCell>
                <mxCell id="38" style="connectable=0;recursiveResize=0;strokeColor=inherit;fillColor=none;align=center;whiteSpace=wrap;html=1;" parent="35" vertex="1">
                    <mxGeometry x="680" width="161" height="45" as="geometry">
                        <mxRectangle width="161" height="45" as="alternateBounds"/>
                    </mxGeometry>
                </mxCell>
                <mxCell id="39" style="shape=tableRow;horizontal=0;startSize=0;swimlaneHead=0;swimlaneBody=0;top=0;left=0;bottom=0;right=0;dropTarget=0;collapsible=0;recursiveResize=0;expand=0;fontStyle=0;fillColor=none;strokeColor=inherit;align=center;" parent="2" vertex="1">
                    <mxGeometry y="293" width="841" height="44" as="geometry"/>
                </mxCell>
                <mxCell id="40" value="&lt;span style=&quot;white-space: pre;&quot;&gt;&#9;&lt;/span&gt;3.2.1&amp;nbsp;USER selects &quot;RESTART DEVELOPEMENT&quot;" style="connectable=0;recursiveResize=0;strokeColor=inherit;fillColor=none;align=left;whiteSpace=wrap;html=1;labelPosition=center;verticalLabelPosition=middle;verticalAlign=middle;" parent="39" vertex="1">
                    <mxGeometry width="480" height="44" as="geometry">
                        <mxRectangle width="480" height="44" as="alternateBounds"/>
                    </mxGeometry>
                </mxCell>
                <mxCell id="41" value=".01 x 1 x 2.5" style="connectable=0;recursiveResize=0;strokeColor=inherit;fillColor=none;align=center;whiteSpace=wrap;html=1;" parent="39" vertex="1">
                    <mxGeometry x="480" width="200" height="44" as="geometry">
                        <mxRectangle width="200" height="44" as="alternateBounds"/>
                    </mxGeometry>
                </mxCell>
                <mxCell id="42" value="0.025" style="connectable=0;recursiveResize=0;strokeColor=inherit;fillColor=none;align=center;whiteSpace=wrap;html=1;" parent="39" vertex="1">
                    <mxGeometry x="680" width="161" height="44" as="geometry">
                        <mxRectangle width="161" height="44" as="alternateBounds"/>
                    </mxGeometry>
                </mxCell>
                <mxCell id="43" style="shape=tableRow;horizontal=0;startSize=0;swimlaneHead=0;swimlaneBody=0;top=0;left=0;bottom=0;right=0;dropTarget=0;collapsible=0;recursiveResize=0;expand=0;fontStyle=0;fillColor=none;strokeColor=inherit;align=center;" parent="2" vertex="1">
                    <mxGeometry y="337" width="841" height="44" as="geometry"/>
                </mxCell>
                <mxCell id="44" value="&lt;span style=&quot;&quot;&gt;&#9;&lt;/span&gt;&lt;span style=&quot;white-space: pre;&quot;&gt;&#9;&lt;/span&gt;4 USER closes test results form" style="connectable=0;recursiveResize=0;strokeColor=inherit;fillColor=none;align=left;whiteSpace=wrap;html=1;labelPosition=center;verticalLabelPosition=middle;verticalAlign=middle;" parent="43" vertex="1">
                    <mxGeometry width="480" height="44" as="geometry">
                        <mxRectangle width="480" height="44" as="alternateBounds"/>
                    </mxGeometry>
                </mxCell>
                <mxCell id="45" value="1 x 1 x 2.5" style="connectable=0;recursiveResize=0;strokeColor=inherit;fillColor=none;align=center;whiteSpace=wrap;html=1;" parent="43" vertex="1">
                    <mxGeometry x="480" width="200" height="44" as="geometry">
                        <mxRectangle width="200" height="44" as="alternateBounds"/>
                    </mxGeometry>
                </mxCell>
                <mxCell id="46" value="2.5" style="connectable=0;recursiveResize=0;strokeColor=inherit;fillColor=none;align=center;whiteSpace=wrap;html=1;" parent="43" vertex="1">
                    <mxGeometry x="680" width="161" height="44" as="geometry">
                        <mxRectangle width="161" height="44" as="alternateBounds"/>
                    </mxGeometry>
                </mxCell>
                <mxCell id="47" style="shape=tableRow;horizontal=0;startSize=0;swimlaneHead=0;swimlaneBody=0;top=0;left=0;bottom=0;right=0;dropTarget=0;collapsible=0;recursiveResize=0;expand=0;fontStyle=0;fillColor=none;strokeColor=inherit;align=center;" parent="2" vertex="1">
                    <mxGeometry y="381" width="841" height="44" as="geometry"/>
                </mxCell>
                <mxCell id="48" style="connectable=0;recursiveResize=0;strokeColor=inherit;fillColor=none;align=left;whiteSpace=wrap;html=1;labelPosition=center;verticalLabelPosition=middle;verticalAlign=middle;" parent="47" vertex="1">
                    <mxGeometry width="480" height="44" as="geometry">
                        <mxRectangle width="480" height="44" as="alternateBounds"/>
                    </mxGeometry>
                </mxCell>
                <mxCell id="49" value="&lt;b&gt;HUMAN TASKS COST&lt;/b&gt;" style="connectable=0;recursiveResize=0;strokeColor=inherit;fillColor=none;align=center;whiteSpace=wrap;html=1;" parent="47" vertex="1">
                    <mxGeometry x="480" width="200" height="44" as="geometry">
                        <mxRectangle width="200" height="44" as="alternateBounds"/>
                    </mxGeometry>
                </mxCell>
                <mxCell id="50" value="&lt;b&gt;15&lt;/b&gt;" style="connectable=0;recursiveResize=0;strokeColor=inherit;fillColor=none;align=center;whiteSpace=wrap;html=1;" parent="47" vertex="1">
                    <mxGeometry x="680" width="161" height="44" as="geometry">
                        <mxRectangle width="161" height="44" as="alternateBounds"/>
                    </mxGeometry>
                </mxCell>
            </root>
        </mxGraphModel>
    </diagram>
</mxfile>